LibreFranklin-ThinItalic.ufo
<glyph name="parenleft" format="2">
  <advance width="268"/>
  <unicode hex="0028"/>
  <outline>
    <contour>
      <point x="162" y="-165" type="curve"/>
      <point x="162" y="-165" type="line"/>
      <point x="172" y="-165" type="line" smooth="yes"/>
      <point x="178" y="-165"/>
      <point x="177" y="-162"/>
      <point x="175" y="-160" type="curve"/>
      <point x="127" y="-9"/>
      <point x="110" y="132"/>
      <point x="131" y="282" type="curve"/>
      <point x="154" y="442"/>
      <point x="230" y="603"/>
      <point x="314" y="733" type="curve"/>
      <point x="315" y="737"/>
      <point x="314" y="742"/>
      <point x="308" y="742" type="curve"/>
      <point x="301" y="742" type="line" smooth="yes"/>
      <point x="295" y="742"/>
      <point x="292" y="741"/>
      <point x="288" y="738" type="curve"/>
      <point x="188" y="612"/>
      <point x="106" y="452"/>
      <point x="83" y="287" type="curve"/>
      <point x="59" y="115"/>
      <point x="91" y="-18"/>
      <point x="154" y="-158" type="curve"/>
      <point x="155" y="-163"/>
      <point x="158" y="-165"/>
    </contour>
  </outline>
</glyph>
<glyph name="comma" format="2">
  <advance width="187"/>
  <unicode hex="002C"/>
  <outline>
    <contour>
      <point x="-6" y="-134" type="curve"/>
      <point x="-6" y="-134" type="line"/>
      <point x="1" y="-134" type="line" smooth="yes"/>
      <point x="7" y="-134"/>
      <point x="10" y="-131"/>
      <point x="12" y="-127" type="curve"/>
      <point x="88" y="5" type="line" smooth="yes"/>
      <point x="90" y="8"/>
      <point x="91" y="12"/>
      <point x="92" y="17" type="curve"/>
      <point x="100" y="70" type="line" smooth="yes"/>
      <point x="101" y="76"/>
      <point x="99" y="79"/>
      <point x="95" y="79" type="curve"/>
      <point x="46" y="79" type="line" smooth="yes"/>
      <point x="42" y="79"/>
      <point x="38" y="76"/>
      <point x="38" y="72" type="curve"/>
      <point x="29" y="6" type="line" smooth="yes"/>
      <point x="28" y="2"/>
      <point x="29" y="0"/>
      <point x="35" y="0" type="curve"/>
      <point x="44" y="0" type="line" smooth="yes"/>
      <point x="53" y="0"/>
      <point x="55" y="-4"/>
      <point x="52" y="-11" type="curve"/>
      <point x="-8" y="-125" type="line" smooth="yes"/>
      <point x="-12" y="-132"/>
      <point x="-11" y="-134"/>
    </contour>
  </outline>
</glyph>
<glyph name="zero" format="2">
  <advance width="675"/>
  <unicode hex="0030"/>
  <outline>
    <contour>
      <point x="404" y="752" type="curve"/>
      <point x="404" y="752" type="line"/>
      <point x="260" y="752"/>
      <point x="130" y="628"/>
      <point x="94" y="369" type="curve"/>
      <point x="89" y="332"/>
      <point x="86" y="297"/>
      <point x="86" y="265" type="curve"/>
      <point x="86" y="79"/>
      <point x="174" y="-10"/>
      <point x="300" y="-10" type="curve"/>
      <point x="445" y="-10"/>
      <point x="574" y="111"/>
      <point x="610" y="367" type="curve"/>
      <point x="615" y="405"/>
      <point x="618" y="439"/>
      <point x="618" y="471" type="curve"/>
      <point x="618" y="661"/>
      <point x="529" y="752"/>
    </contour>
    <contour>
      <point x="304" y="32" type="curve"/>
      <point x="304" y="32" type="line"/>
      <point x="202" y="32"/>
      <point x="133" y="102"/>
      <point x="133" y="264" type="curve"/>
      <point x="133" y="295"/>
      <point x="136" y="329"/>
      <point x="141" y="367" type="curve"/>
      <point x="175" y="606"/>
      <point x="280" y="710"/>
      <point x="403" y="710" type="curve"/>
      <point x="504" y="710"/>
      <point x="571" y="639"/>
      <point x="571" y="477" type="curve"/>
      <point x="571" y="446"/>
      <point x="568" y="410"/>
      <point x="563" y="371" type="curve"/>
      <point x="529" y="133"/>
      <point x="428" y="32"/>
    </contour>
  </outline>
</glyph>
<glyph name="G" format="2">
  <advance width="730"/>
  <unicode hex="0047"/>
  <anchor x="441" y="742" name="top"/>
  <anchor x="342" y="0" name="bottom"/>
  <outline>
    <contour>
      <point x="336" y="-10" type="curve"/>
      <point x="336" y="-10" type="line"/>
      <point x="446" y="-10"/>
      <point x="531" y="45"/>
      <point x="575" y="116" type="curve"/>
      <point x="580" y="123"/>
      <point x="584" y="123"/>
      <point x="583" y="116" type="curve"/>
      <point x="568" y="10" type="line" smooth="yes"/>
      <point x="567" y="2"/>
      <point x="570" y="0"/>
      <point x="579" y="0" type="curve"/>
      <point x="596" y="0" type="line" smooth="yes"/>
      <point x="604" y="0"/>
      <point x="607" y="2"/>
      <point x="608" y="10" type="curve"/>
      <point x="659" y="370" type="line" smooth="yes"/>
      <point x="660" y="374"/>
      <point x="657" y="377"/>
      <point x="653" y="377" type="curve"/>
      <point x="417" y="377" type="line" smooth="yes"/>
      <point x="414" y="377"/>
      <point x="413" y="376"/>
      <point x="412" y="372" type="curve"/>
      <point x="409" y="349" type="line" smooth="yes"/>
      <point x="408" y="343"/>
      <point x="411" y="342"/>
      <point x="416" y="342" type="curve"/>
      <point x="605" y="342" type="line" smooth="yes"/>
      <point x="613" y="342"/>
      <point x="615" y="341"/>
      <point x="614" y="334" type="curve"/>
      <point x="603" y="256" type="line" smooth="yes"/>
      <point x="590" y="162"/>
      <point x="498" y="32"/>
      <point x="339" y="32" type="curve"/>
      <point x="203" y="32"/>
      <point x="134" y="117"/>
      <point x="134" y="275" type="curve"/>
      <point x="134" y="499"/>
      <point x="232" y="710"/>
      <point x="439" y="710" type="curve"/>
      <point x="544" y="710"/>
      <point x="618" y="640"/>
      <point x="621" y="553" type="curve"/>
      <point x="621" y="545"/>
      <point x="622" y="542"/>
      <point x="627" y="543" type="curve"/>
      <point x="664" y="549" type="line" smooth="yes"/>
      <point x="668" y="550"/>
      <point x="669" y="551"/>
      <point x="669" y="557" type="curve"/>
      <point x="671" y="662"/>
      <point x="564" y="752"/>
      <point x="440" y="752" type="curve"/>
      <point x="208" y="752"/>
      <point x="86" y="524"/>
      <point x="86" y="276" type="curve"/>
      <point x="86" y="94"/>
      <point x="176" y="-10"/>
    </contour>
  </outline>
</glyph>
<glyph name="K" format="2">
  <advance width="674"/>
  <unicode hex="004B"/>
  <anchor x="440" y="742" name="top"/>
  <anchor x="306" y="0" name="bottom"/>
  <outline>
    <contour>
      <point x="584" y="10" type="curve"/>
      <point x="584" y="10" type="line"/>
      <point x="367" y="444" type="line" smooth="yes"/>
      <point x="365" y="448"/>
      <point x="368" y="448"/>
      <point x="370" y="450" type="curve"/>
      <point x="669" y="733" type="line" smooth="yes"/>
      <point x="673" y="737"/>
      <point x="673" y="742"/>
      <point x="667" y="742" type="curve"/>
      <point x="629" y="742" type="line" smooth="yes"/>
      <point x="623" y="742"/>
      <point x="618" y="741"/>
      <point x="614" y="737" type="curve"/>
      <point x="174" y="323" type="line" smooth="yes"/>
      <point x="168" y="318"/>
      <point x="167" y="316"/>
      <point x="168" y="322" type="curve"/>
      <point x="226" y="733" type="line" smooth="yes"/>
      <point x="227" y="739"/>
      <point x="223" y="742"/>
      <point x="218" y="742" type="curve"/>
      <point x="188" y="742" type="line" smooth="yes"/>
      <point x="182" y="742"/>
      <point x="181" y="740"/>
      <point x="180" y="735" type="curve"/>
      <point x="78" y="10" type="line" smooth="yes"/>
      <point x="77" y="3"/>
      <point x="81" y="0"/>
      <point x="88" y="0" type="curve"/>
      <point x="114" y="0" type="line" smooth="yes"/>
      <point x="121" y="0"/>
      <point x="123" y="2"/>
      <point x="124" y="8" type="curve"/>
      <point x="157" y="245" type="line" smooth="yes"/>
      <point x="158" y="253"/>
      <point x="162" y="256"/>
      <point x="169" y="262" type="curve"/>
      <point x="321" y="408" type="line" smooth="yes"/>
      <point x="327" y="413"/>
      <point x="330" y="416"/>
      <point x="333" y="410" type="curve"/>
      <point x="535" y="6" type="line" smooth="yes"/>
      <point x="536" y="3"/>
      <point x="539" y="0"/>
      <point x="544" y="0" type="curve"/>
      <point x="583" y="0" type="line" smooth="yes"/>
      <point x="587" y="0"/>
      <point x="588" y="3"/>
    </contour>
  </outline>
</glyph>
<glyph name="S" format="2">
  <advance width="618"/>
  <unicode hex="0053"/>
  <anchor x="386" y="742" name="top"/>
  <anchor x="286" y="0" name="bottom"/>
  <outline>
    <contour>
      <point x="552" y="629" type="curve"/>
      <point x="552" y="629" type="line"/>
      <point x="559" y="620"/>
      <point x="561" y="619"/>
      <point x="564" y="621" type="curve"/>
      <point x="589" y="641" type="line" smooth="yes"/>
      <point x="594" y="645"/>
      <point x="594" y="647"/>
      <point x="588" y="654" type="curve"/>
      <point x="540" y="715"/>
      <point x="478" y="752"/>
      <point x="384" y="752" type="curve"/>
      <point x="239" y="752"/>
      <point x="125" y="666"/>
      <point x="125" y="531" type="curve"/>
      <point x="125" y="474"/>
      <point x="153" y="415"/>
      <point x="241" y="380" type="curve"/>
      <point x="384" y="322" type="line" smooth="yes"/>
      <point x="473" y="286"/>
      <point x="497" y="251"/>
      <point x="497" y="205" type="curve"/>
      <point x="497" y="87"/>
      <point x="406" y="32"/>
      <point x="274" y="32" type="curve"/>
      <point x="168" y="32"/>
      <point x="125" y="68"/>
      <point x="79" y="139" type="curve"/>
      <point x="74" y="147"/>
      <point x="68" y="148"/>
      <point x="60" y="142" type="curve"/>
      <point x="48" y="134" type="line" smooth="yes"/>
      <point x="39" y="129"/>
      <point x="38" y="121"/>
      <point x="41" y="115" type="curve"/>
      <point x="88" y="30"/>
      <point x="160" y="-10"/>
      <point x="272" y="-10" type="curve"/>
      <point x="426" y="-10"/>
      <point x="543" y="67"/>
      <point x="543" y="210" type="curve"/>
      <point x="543" y="280"/>
      <point x="504" y="331"/>
      <point x="406" y="369" type="curve"/>
      <point x="275" y="419" type="line" smooth="yes"/>
      <point x="189" y="452"/>
      <point x="171" y="499"/>
      <point x="171" y="535" type="curve"/>
      <point x="171" y="640"/>
      <point x="261" y="710"/>
      <point x="380" y="710" type="curve"/>
      <point x="463" y="710"/>
      <point x="519" y="675"/>
    </contour>
  </outline>
</glyph>
<glyph name="Y" format="2">
  <advance width="638"/>
  <unicode hex="0059"/>
  <anchor x="381" y="742" name="top"/>
  <anchor x="282" y="0" name="bottom"/>
  <anchor x="87" y="742" name="topleft"/>
  <outline>
    <contour>
      <point x="650" y="742" type="curve"/>
      <point x="650" y="742" type="line"/>
      <point x="622" y="742" type="line" smooth="yes"/>
      <point x="613" y="742"/>
      <point x="610" y="741"/>
      <point x="605" y="734" type="curve"/>
      <point x="345" y="375" type="line" smooth="yes"/>
      <point x="334" y="360"/>
      <point x="327" y="361"/>
      <point x="321" y="375" type="curve"/>
      <point x="162" y="732" type="line" smooth="yes"/>
      <point x="159" y="739"/>
      <point x="156" y="742"/>
      <point x="147" y="742" type="curve"/>
      <point x="123" y="742" type="line" smooth="yes"/>
      <point x="113" y="742"/>
      <point x="113" y="738"/>
      <point x="116" y="731" type="curve"/>
      <point x="302" y="316" type="line" smooth="yes"/>
      <point x="305" y="309"/>
      <point x="305" y="306"/>
      <point x="303" y="296" type="curve"/>
      <point x="263" y="12" type="line" smooth="yes"/>
      <point x="262" y="5"/>
      <point x="263" y="0"/>
      <point x="272" y="0" type="curve"/>
      <point x="293" y="0" type="line" smooth="yes"/>
      <point x="304" y="0"/>
      <point x="308" y="3"/>
      <point x="309" y="12" type="curve"/>
      <point x="351" y="305" type="line" smooth="yes"/>
      <point x="352" y="315"/>
      <point x="354" y="319"/>
      <point x="358" y="325" type="curve"/>
      <point x="654" y="730" type="line" smooth="yes"/>
      <point x="659" y="736"/>
      <point x="657" y="742"/>
    </contour>
  </outline>
</glyph>
<glyph name="bracketright" format="2">
  <advance width="268"/>
  <unicode hex="005D"/>
  <outline>
    <contour>
      <point x="-37" y="-165" type="curve"/>
      <point x="-37" y="-165" type="line"/>
      <point x="95" y="-165" type="line" smooth="yes"/>
      <point x="101" y="-165"/>
      <point x="102" y="-164"/>
      <point x="103" y="-160" type="curve"/>
      <point x="227" y="733" type="line" smooth="yes"/>
      <point x="228" y="738"/>
      <point x="224" y="742"/>
      <point x="218" y="742" type="curve"/>
      <point x="90" y="742" type="line" smooth="yes"/>
      <point x="84" y="742"/>
      <point x="83" y="741"/>
      <point x="82" y="735" type="curve"/>
      <point x="79" y="714" type="line" smooth="yes"/>
      <point x="79" y="709"/>
      <point x="82" y="705"/>
      <point x="87" y="705" type="curve"/>
      <point x="176" y="705" type="line" smooth="yes"/>
      <point x="181" y="705"/>
      <point x="181" y="705"/>
      <point x="181" y="700" type="curve"/>
      <point x="64" y="-119" type="line" smooth="yes"/>
      <point x="64" y="-124"/>
      <point x="60" y="-128"/>
      <point x="55" y="-128" type="curve"/>
      <point x="-34" y="-128" type="line" smooth="yes"/>
      <point x="-38" y="-128"/>
      <point x="-40" y="-129"/>
      <point x="-41" y="-133" type="curve"/>
      <point x="-44" y="-159" type="line" smooth="yes"/>
      <point x="-45" y="-163"/>
      <point x="-42" y="-165"/>
    </contour>
  </outline>
</glyph>
<glyph name="s" format="2">
  <advance width="501"/>
  <unicode hex="0073"/>
  <anchor x="271" y="530" name="top"/>
  <anchor x="205" y="0" name="bottom"/>
  <outline>
    <contour>
      <point x="206" y="-10" type="curve"/>
      <point x="206" y="-10" type="line"/>
      <point x="306" y="-10"/>
      <point x="428" y="44"/>
      <point x="428" y="151" type="curve"/>
      <point x="428" y="201"/>
      <point x="395" y="244"/>
      <point x="328" y="266" type="curve"/>
      <point x="199" y="308" type="line" smooth="yes"/>
      <point x="132" y="330"/>
      <point x="114" y="358"/>
      <point x="114" y="387" type="curve"/>
      <point x="114" y="467"/>
      <point x="211" y="502"/>
      <point x="280" y="502" type="curve"/>
      <point x="352" y="502"/>
      <point x="403" y="475"/>
      <point x="428" y="428" type="curve"/>
      <point x="430" y="424"/>
      <point x="434" y="422"/>
      <point x="437" y="424" type="curve"/>
      <point x="458" y="437" type="line" smooth="yes"/>
      <point x="462" y="439"/>
      <point x="463" y="442"/>
      <point x="461" y="446" type="curve"/>
      <point x="431" y="507"/>
      <point x="366" y="540"/>
      <point x="283" y="540" type="curve"/>
      <point x="175" y="540"/>
      <point x="72" y="480"/>
      <point x="72" y="376" type="curve"/>
      <point x="72" y="332"/>
      <point x="98" y="292"/>
      <point x="183" y="266" type="curve"/>
      <point x="282" y="236" type="line" smooth="yes"/>
      <point x="355" y="214"/>
      <point x="386" y="182"/>
      <point x="386" y="144" type="curve"/>
      <point x="386" y="57"/>
      <point x="272" y="28"/>
      <point x="208" y="28" type="curve"/>
      <point x="125" y="28"/>
      <point x="69" y="63"/>
      <point x="42" y="122" type="curve"/>
      <point x="40" y="126"/>
      <point x="37" y="128"/>
      <point x="33" y="126" type="curve"/>
      <point x="10" y="113" type="line" smooth="yes"/>
      <point x="7" y="111"/>
      <point x="6" y="108"/>
      <point x="8" y="103" type="curve"/>
      <point x="31" y="36"/>
      <point x="108" y="-10"/>
    </contour>
  </outline>
</glyph>
<glyph name="exclamdown" format="2">
  <advance width="232"/>
  <unicode hex="00A1"/>
  <outline>
    <contour>
      <point x="174" y="458" type="curve"/>
      <point x="174" y="458" type="line"/>
      <point x="183" y="518" type="line" smooth="yes"/>
      <point x="184" y="526"/>
      <point x="180" y="530"/>
      <point x="170" y="530" type="curve"/>
      <point x="131" y="530" type="line" smooth="yes"/>
      <point x="123" y="530"/>
      <point x="122" y="528"/>
      <point x="121" y="521" type="curve"/>
      <point x="113" y="461" type="line" smooth="yes"/>
      <point x="112" y="454"/>
      <point x="115" y="451"/>
      <point x="119" y="451" type="curve"/>
      <point x="167" y="451" type="line" smooth="yes"/>
      <point x="172" y="451"/>
      <point x="173" y="452"/>
    </contour>
    <contour>
      <point x="83" y="-160" type="curve"/>
      <point x="83" y="-160" type="line"/>
      <point x="147" y="373" type="line" smooth="yes"/>
      <point x="148" y="379"/>
      <point x="144" y="382"/>
      <point x="137" y="382" type="curve"/>
      <point x="123" y="382" type="line" smooth="yes"/>
      <point x="117" y="382"/>
      <point x="116" y="381"/>
      <point x="116" y="376" type="curve"/>
      <point x="31" y="-157" type="line" smooth="yes"/>
      <point x="30" y="-162"/>
      <point x="33" y="-165"/>
      <point x="36" y="-165" type="curve"/>
      <point x="78" y="-165" type="line" smooth="yes"/>
      <point x="82" y="-165"/>
      <point x="83" y="-163"/>
    </contour>
  </outline>
</glyph>
<glyph name="Eth" format="2">
  <advance width="666"/>
  <unicode hex="00D0"/>
  <outline>
    <contour>
      <point x="336" y="363" type="curve"/>
      <point x="339" y="386" type="line"/>
      <point x="340" y="391"/>
      <point x="337" y="395"/>
      <point x="332" y="395" type="curve"/>
      <point x="39" y="395" type="line" smooth="yes"/>
      <point x="34" y="395"/>
      <point x="33" y="393"/>
      <point x="32" y="387" type="curve"/>
      <point x="29" y="364" type="line" smooth="yes"/>
      <point x="28" y="357"/>
      <point x="30" y="353"/>
      <point x="38" y="353" type="curve"/>
      <point x="322" y="353" type="line" smooth="yes"/>
      <point x="331" y="353"/>
      <point x="335" y="355"/>
    </contour>
    <component base="D" xOffset="-37"/>
  </outline>
</glyph>
<glyph name="divide" format="2">
  <advance width="541"/>
  <unicode hex="00F7"/>
  <outline>
    <contour>
      <point x="301" y="184" type="curve"/>
      <point x="309" y="244" type="line"/>
      <point x="310" y="250"/>
      <point x="307" y="253"/>
      <point x="302" y="253" type="curve"/>
      <point x="234" y="253" type="line" smooth="yes"/>
      <point x="230" y="253"/>
      <point x="228" y="252"/>
      <point x="227" y="245" type="curve"/>
      <point x="219" y="185" type="line" smooth="yes"/>
      <point x="218" y="178"/>
      <point x="220" y="174"/>
      <point x="228" y="174" type="curve"/>
      <point x="287" y="174" type="line" smooth="yes"/>
      <point x="297" y="174"/>
      <point x="299" y="176"/>
    </contour>
    <contour>
      <point x="484" y="361" type="curve"/>
      <point x="488" y="385" type="line"/>
      <point x="488" y="389"/>
      <point x="485" y="392"/>
      <point x="481" y="392" type="curve"/>
      <point x="92" y="391" type="line" smooth="yes"/>
      <point x="89" y="391"/>
      <point x="88" y="390"/>
      <point x="87" y="385" type="curve"/>
      <point x="83" y="361" type="line" smooth="yes"/>
      <point x="83" y="356"/>
      <point x="85" y="353"/>
      <point x="91" y="353" type="curve"/>
      <point x="475" y="354" type="line" smooth="yes"/>
      <point x="482" y="354"/>
      <point x="484" y="355"/>
    </contour>
    <contour>
      <point x="345" y="502" type="curve"/>
      <point x="354" y="562" type="line"/>
      <point x="355" y="568"/>
      <point x="352" y="571"/>
      <point x="347" y="571" type="curve"/>
      <point x="279" y="571" type="line" smooth="yes"/>
      <point x="275" y="571"/>
      <point x="273" y="570"/>
      <point x="272" y="563" type="curve"/>
      <point x="263" y="503" type="line" smooth="yes"/>
      <point x="262" y="496"/>
      <point x="265" y="492"/>
      <point x="273" y="492" type="curve"/>
      <point x="332" y="492" type="line" smooth="yes"/>
      <point x="342" y="492"/>
      <point x="344" y="494"/>
    </contour>
  </outline>
</glyph>
<glyph name="schwa" format="2">
  <advance width="577"/>
  <unicode hex="0259"/>
  <outline>
    <contour>
      <point x="315" y="540" type="curve"/>
      <point x="315" y="540" type="line"/>
      <point x="222" y="540"/>
      <point x="147" y="504"/>
      <point x="90" y="432" type="curve"/>
      <point x="88" y="427"/>
      <point x="89" y="423"/>
      <point x="92" y="421" type="curve" smooth="yes"/>
      <point x="113" y="406" type="line"/>
      <point x="116" y="403"/>
      <point x="119" y="402"/>
      <point x="124" y="407" type="curve"/>
      <point x="169" y="468"/>
      <point x="232" y="502"/>
      <point x="313" y="502" type="curve" smooth="yes"/>
      <point x="414" y="502"/>
      <point x="485" y="431"/>
      <point x="485" y="322" type="curve" smooth="yes"/>
      <point x="485" y="281"/>
      <point x="481" y="276"/>
      <point x="473" y="276" type="curve" smooth="yes"/>
      <point x="67" y="276" type="line" smooth="yes"/>
      <point x="56" y="276"/>
      <point x="49" y="268"/>
      <point x="48" y="258" type="curve" smooth="yes"/>
      <point x="45" y="237"/>
      <point x="44" y="218"/>
      <point x="44" y="199" type="curve" smooth="yes"/>
      <point x="44" y="66"/>
      <point x="117" y="-10"/>
      <point x="241" y="-10" type="curve" smooth="yes"/>
      <point x="423" y="-10"/>
      <point x="525" y="155"/>
      <point x="525" y="319" type="curve" smooth="yes"/>
      <point x="525" y="453"/>
      <point x="444" y="540"/>
    </contour>
    <contour>
      <point x="105" y="240" type="curve" smooth="yes"/>
      <point x="475" y="240" type="line"/>
      <point x="462" y="140"/>
      <point x="377" y="28"/>
      <point x="244" y="28" type="curve" smooth="yes"/>
      <point x="147" y="28"/>
      <point x="83" y="92"/>
      <point x="83" y="191" type="curve" smooth="yes"/>
      <point x="83" y="235"/>
      <point x="91" y="240"/>
    </contour>
  </outline>
</glyph>
<glyph name="dotaccentcomb" format="2">
  <unicode hex="0307"/>
  <anchor x="2" y="530" name="_top"/>
  <outline>
    <contour>
      <point x="45" y="655" type="curve"/>
      <point x="55" y="731" type="line"/>
      <point x="57" y="739"/>
      <point x="54" y="742"/>
      <point x="47" y="742" type="curve"/>
      <point x="15" y="742" type="line" smooth="yes"/>
      <point x="8" y="742"/>
      <point x="7" y="741"/>
      <point x="6" y="733" type="curve"/>
      <point x="-5" y="655" type="line" smooth="yes"/>
      <point x="-6" y="647"/>
      <point x="-4" y="644"/>
      <point x="5" y="644" type="curve"/>
      <point x="32" y="644" type="line" smooth="yes"/>
      <point x="42" y="644"/>
      <point x="43" y="645"/>
    </contour>
  </outline>
</glyph>
<glyph name="dotbelowcomb" format="2">
  <unicode hex="0323"/>
  <anchor x="-73" y="0" name="_bottom"/>
  <outline>
    <contour>
      <point x="-69" y="-154" type="curve"/>
      <point x="-58" y="-73" type="line"/>
      <point x="-56" y="-65"/>
      <point x="-59" y="-62"/>
      <point x="-66" y="-62" type="curve"/>
      <point x="-100" y="-62" type="line" smooth="yes"/>
      <point x="-107" y="-62"/>
      <point x="-108" y="-63"/>
      <point x="-109" y="-71" type="curve"/>
      <point x="-121" y="-154" type="line" smooth="yes"/>
      <point x="-122" y="-162"/>
      <point x="-119" y="-165"/>
      <point x="-110" y="-165" type="curve"/>
      <point x="-81" y="-165" type="line" smooth="yes"/>
      <point x="-71" y="-165"/>
      <point x="-70" y="-164"/>
    </contour>
  </outline>
</glyph>
<glyph name="quoteleft" format="2">
  <advance width="210"/>
  <unicode hex="2018"/>
  <outline>
    <contour>
      <point x="262" y="742" type="curve"/>
      <point x="262" y="742" type="line"/>
      <point x="245" y="742" type="line" smooth="yes"/>
      <point x="239" y="742"/>
      <point x="234" y="740"/>
      <point x="233" y="736" type="curve"/>
      <point x="149" y="619" type="line"/>
      <point x="148" y="617"/>
      <point x="147" y="616"/>
      <point x="146" y="613" type="curve"/>
      <point x="138" y="551" type="line"/>
      <point x="137" y="547"/>
      <point x="138" y="546"/>
      <point x="142" y="546" type="curve" smooth="yes"/>
      <point x="215" y="546" type="line" smooth="yes"/>
      <point x="219" y="546"/>
      <point x="222" y="549"/>
      <point x="223" y="553" type="curve"/>
      <point x="233" y="622" type="line"/>
      <point x="233" y="626"/>
      <point x="232" y="628"/>
      <point x="226" y="628" type="curve" smooth="yes"/>
      <point x="209" y="628" type="line" smooth="yes"/>
      <point x="202" y="628"/>
      <point x="201" y="634"/>
      <point x="206" y="643" type="curve"/>
      <point x="265" y="736" type="line"/>
      <point x="266" y="739"/>
      <point x="266" y="742"/>
    </contour>
  </outline>
</glyph>
<glyph name="quotesinglbase" format="2">
  <advance width="210"/>
  <unicode hex="201A"/>
  <outline>
    <contour>
      <point x="0" y="-114" type="curve"/>
      <point x="0" y="-114" type="line"/>
      <point x="17" y="-114" type="line" smooth="yes"/>
      <point x="23" y="-114"/>
      <point x="27" y="-112"/>
      <point x="29" y="-108" type="curve"/>
      <point x="112" y="9" type="line" smooth="yes"/>
      <point x="113" y="11"/>
      <point x="114" y="12"/>
      <point x="115" y="15" type="curve"/>
      <point x="124" y="77" type="line" smooth="yes"/>
      <point x="124" y="81"/>
      <point x="123" y="82"/>
      <point x="119" y="82" type="curve"/>
      <point x="46" y="82" type="line" smooth="yes"/>
      <point x="42" y="82"/>
      <point x="39" y="79"/>
      <point x="38" y="75" type="curve"/>
      <point x="29" y="6" type="line" smooth="yes"/>
      <point x="28" y="2"/>
      <point x="29" y="0"/>
      <point x="35" y="0" type="curve"/>
      <point x="52" y="0" type="line" smooth="yes"/>
      <point x="59" y="0"/>
      <point x="60" y="-6"/>
      <point x="56" y="-15" type="curve"/>
      <point x="-3" y="-108" type="line" smooth="yes"/>
      <point x="-5" y="-111"/>
      <point x="-4" y="-114"/>
    </contour>
  </outline>
</glyph>
<glyph name="guilsinglright" format="2">
  <advance width="254"/>
  <unicode hex="203A"/>
  <outline>
    <contour>
      <point x="162" y="252" type="curve"/>
      <point x="162" y="252" type="line"/>
      <point x="25" y="84" type="line" smooth="yes"/>
      <point x="23" y="80"/>
      <point x="27" y="78"/>
      <point x="33" y="78" type="curve"/>
      <point x="45" y="78" type="line" smooth="yes"/>
      <point x="49" y="78"/>
      <point x="51" y="79"/>
      <point x="52" y="81" type="curve"/>
      <point x="215" y="249" type="line" smooth="yes"/>
      <point x="219" y="254"/>
      <point x="219" y="258"/>
      <point x="216" y="262" type="curve"/>
      <point x="101" y="440" type="line" smooth="yes"/>
      <point x="98" y="444"/>
      <point x="97" y="445"/>
      <point x="94" y="445" type="curve"/>
      <point x="80" y="445" type="line" smooth="yes"/>
      <point x="76" y="445"/>
      <point x="74" y="443"/>
      <point x="76" y="438" type="curve"/>
      <point x="166" y="264" type="line" smooth="yes"/>
      <point x="168" y="260"/>
      <point x="166" y="256"/>
    </contour>
  </outline>
</glyph>
<glyph name="trademark" format="2">
  <advance width="883"/>
  <unicode hex="2122"/>
  <outline>
    <contour>
      <point x="73" y="738" type="curve"/>
      <point x="71" y="722" type="line"/>
      <point x="70" y="718"/>
      <point x="71" y="717"/>
      <point x="75" y="717" type="curve" smooth="yes"/>
      <point x="220" y="717" type="line" smooth="yes"/>
      <point x="225" y="717"/>
      <point x="227" y="715"/>
      <point x="226" y="709" type="curve" smooth="yes"/>
      <point x="166" y="285" type="line"/>
      <point x="166" y="280"/>
      <point x="166" y="278"/>
      <point x="171" y="278" type="curve" smooth="yes"/>
      <point x="190" y="278" type="line" smooth="yes"/>
      <point x="194" y="278"/>
      <point x="195" y="279"/>
      <point x="195" y="284" type="curve"/>
      <point x="255" y="711" type="line"/>
      <point x="256" y="716"/>
      <point x="258" y="717"/>
      <point x="263" y="717" type="curve" smooth="yes"/>
      <point x="395" y="717" type="line" smooth="yes"/>
      <point x="398" y="717"/>
      <point x="400" y="718"/>
      <point x="401" y="722" type="curve"/>
      <point x="403" y="737" type="line"/>
      <point x="404" y="740"/>
      <point x="403" y="742"/>
      <point x="400" y="742" type="curve" smooth="yes"/>
      <point x="77" y="742" type="line" smooth="yes"/>
      <point x="74" y="742"/>
      <point x="73" y="741"/>
    </contour>
    <contour>
      <point x="419" y="278" type="curve"/>
      <point x="419" y="278" type="line"/>
      <point x="436" y="278" type="line" smooth="yes"/>
      <point x="440" y="278"/>
      <point x="442" y="279"/>
      <point x="442" y="283" type="curve"/>
      <point x="496" y="666" type="line"/>
      <point x="497" y="668"/>
      <point x="498" y="668"/>
      <point x="499" y="666" type="curve"/>
      <point x="597" y="285" type="line"/>
      <point x="599" y="279"/>
      <point x="600" y="278"/>
      <point x="605" y="278" type="curve" smooth="yes"/>
      <point x="625" y="278" type="line" smooth="yes"/>
      <point x="631" y="278"/>
      <point x="633" y="279"/>
      <point x="635" y="284" type="curve"/>
      <point x="845" y="668" type="line"/>
      <point x="846" y="669"/>
      <point x="847" y="670"/>
      <point x="847" y="667" type="curve"/>
      <point x="793" y="284" type="line"/>
      <point x="792" y="280"/>
      <point x="795" y="278"/>
      <point x="799" y="278" type="curve" smooth="yes"/>
      <point x="816" y="278" type="line" smooth="yes"/>
      <point x="820" y="278"/>
      <point x="821" y="279"/>
      <point x="822" y="284" type="curve"/>
      <point x="885" y="735" type="line"/>
      <point x="885" y="740"/>
      <point x="884" y="742"/>
      <point x="880" y="742" type="curve" smooth="yes"/>
      <point x="862" y="742" type="line" smooth="yes"/>
      <point x="858" y="742"/>
      <point x="857" y="741"/>
      <point x="855" y="738" type="curve"/>
      <point x="626" y="319" type="line" smooth="yes"/>
      <point x="622" y="311"/>
      <point x="619" y="309"/>
      <point x="617" y="317" type="curve" smooth="yes"/>
      <point x="507" y="738" type="line"/>
      <point x="507" y="741"/>
      <point x="505" y="742"/>
      <point x="502" y="742" type="curve" smooth="yes"/>
      <point x="484" y="742" type="line" smooth="yes"/>
      <point x="480" y="742"/>
      <point x="479" y="741"/>
      <point x="479" y="736" type="curve"/>
      <point x="415" y="285" type="line" smooth="yes"/>
      <point x="414" y="279"/>
      <point x="414" y="278"/>
    </contour>
  </outline>
</glyph>
<glyph name="partialdiff" format="2">
  <advance width="587"/>
  <unicode hex="2202"/>
  <outline>
    <contour>
      <point x="176" y="659" type="curve"/>
      <point x="176" y="659" type="line"/>
      <point x="218" y="684"/>
      <point x="258" y="708"/>
      <point x="325" y="708" type="curve"/>
      <point x="463" y="708"/>
      <point x="529" y="607"/>
      <point x="498" y="388" type="curve"/>
      <point x="498" y="383"/>
      <point x="494" y="378"/>
      <point x="484" y="384" type="curve"/>
      <point x="434" y="416"/>
      <point x="402" y="436"/>
      <point x="326" y="436" type="curve"/>
      <point x="171" y="436"/>
      <point x="68" y="355"/>
      <point x="49" y="225" type="curve"/>
      <point x="31" y="91"/>
      <point x="113" y="-10"/>
      <point x="247" y="-10" type="curve"/>
      <point x="402" y="-10"/>
      <point x="513" y="127"/>
      <point x="547" y="374" type="curve"/>
      <point x="583" y="626"/>
      <point x="505" y="752"/>
      <point x="345" y="752" type="curve"/>
      <point x="280" y="752"/>
      <point x="201" y="731"/>
      <point x="160" y="694" type="curve"/>
      <point x="154" y="688"/>
      <point x="155" y="684"/>
      <point x="157" y="679" type="curve"/>
      <point x="165" y="663" type="line" smooth="yes"/>
      <point x="167" y="658"/>
      <point x="170" y="656"/>
    </contour>
    <contour>
      <point x="242" y="33" type="curve"/>
      <point x="241" y="33" type="line"/>
      <point x="147" y="33"/>
      <point x="83" y="117"/>
      <point x="97" y="217" type="curve"/>
      <point x="112" y="319"/>
      <point x="200" y="393"/>
      <point x="309" y="393" type="curve"/>
      <point x="379" y="393"/>
      <point x="456" y="362"/>
      <point x="485" y="323" type="curve"/>
      <point x="491" y="315"/>
      <point x="490" y="308"/>
      <point x="485" y="287" type="curve"/>
      <point x="450" y="134"/>
      <point x="347" y="33"/>
    </contour>
  </outline>
</glyph>
<glyph name="greaterequal" format="2">
  <advance width="531"/>
  <unicode hex="2265"/>
  <outline>
    <contour>
      <point x="76" y="300" type="curve"/>
      <point x="76" y="300" type="line"/>
      <point x="73" y="279" type="line" smooth="yes"/>
      <point x="71" y="268"/>
      <point x="79" y="263"/>
      <point x="88" y="267" type="curve"/>
      <point x="477" y="413" type="line" smooth="yes"/>
      <point x="482" y="415"/>
      <point x="484" y="417"/>
      <point x="485" y="422" type="curve"/>
      <point x="490" y="457" type="line" smooth="yes"/>
      <point x="491" y="463"/>
      <point x="487" y="466"/>
      <point x="483" y="468" type="curve"/>
      <point x="135" y="616" type="line" smooth="yes"/>
      <point x="124" y="621"/>
      <point x="120" y="618"/>
      <point x="118" y="608" type="curve"/>
      <point x="115" y="582" type="line" smooth="yes"/>
      <point x="114" y="576"/>
      <point x="118" y="572"/>
      <point x="127" y="568" type="curve"/>
      <point x="427" y="441" type="line"/>
      <point x="90" y="313" type="line" smooth="yes"/>
      <point x="80" y="309"/>
      <point x="77" y="307"/>
    </contour>
    <contour>
      <point x="49" y="115" type="curve"/>
      <point x="49" y="115" type="line"/>
      <point x="46" y="91" type="line" smooth="yes"/>
      <point x="45" y="86"/>
      <point x="47" y="83"/>
      <point x="53" y="83" type="curve"/>
      <point x="437" y="84" type="line" smooth="yes"/>
      <point x="444" y="84"/>
      <point x="446" y="85"/>
      <point x="447" y="91" type="curve"/>
      <point x="450" y="115" type="line" smooth="yes"/>
      <point x="450" y="119"/>
      <point x="447" y="122"/>
      <point x="443" y="122" type="curve"/>
      <point x="54" y="121" type="line" smooth="yes"/>
      <point x="51" y="121"/>
      <point x="50" y="120"/>
    </contour>
  </outline>
</glyph>
<glyph name="five.dnom" format="2">
  <advance width="401"/>
  <outline>
    <contour>
      <point x="329" y="464" type="curve" smooth="yes"/>
      <point x="79" y="464" type="line" smooth="yes"/>
      <point x="73" y="464"/>
      <point x="72" y="463"/>
      <point x="71" y="459" type="curve" smooth="yes"/>
      <point x="23" y="239" type="line"/>
      <point x="21" y="234"/>
      <point x="21" y="233"/>
      <point x="25" y="229" type="curve"/>
      <point x="38" y="219" type="line"/>
      <point x="41" y="217"/>
      <point x="43" y="217"/>
      <point x="47" y="218" type="curve"/>
      <point x="80" y="237"/>
      <point x="124" y="264"/>
      <point x="178" y="264" type="curve" smooth="yes"/>
      <point x="235" y="264"/>
      <point x="283" y="237"/>
      <point x="283" y="171" type="curve" smooth="yes"/>
      <point x="283" y="80"/>
      <point x="212" y="16"/>
      <point x="114" y="16" type="curve" smooth="yes"/>
      <point x="58" y="16"/>
      <point x="21" y="42"/>
      <point x="-3" y="68" type="curve" smooth="yes"/>
      <point x="-6" y="71"/>
      <point x="-8" y="71"/>
      <point x="-11" y="69" type="curve"/>
      <point x="-23" y="58" type="line" smooth="yes"/>
      <point x="-25" y="56"/>
      <point x="-25" y="54"/>
      <point x="-22" y="51" type="curve" smooth="yes"/>
      <point x="17" y="8"/>
      <point x="63" y="-9"/>
      <point x="117" y="-9" type="curve" smooth="yes"/>
      <point x="228" y="-9"/>
      <point x="313" y="66"/>
      <point x="313" y="174" type="curve" smooth="yes"/>
      <point x="313" y="256"/>
      <point x="252" y="289"/>
      <point x="182" y="289" type="curve" smooth="yes"/>
      <point x="131" y="289"/>
      <point x="90" y="271"/>
      <point x="61" y="254" type="curve"/>
      <point x="58" y="252"/>
      <point x="55" y="254"/>
      <point x="56" y="259" type="curve" smooth="yes"/>
      <point x="94" y="432" type="line"/>
      <point x="95" y="435"/>
      <point x="97" y="437"/>
      <point x="100" y="437" type="curve" smooth="yes"/>
      <point x="324" y="437" type="line" smooth="yes"/>
      <point x="328" y="437"/>
      <point x="329" y="439"/>
      <point x="330" y="441" type="curve"/>
      <point x="334" y="458" type="line"/>
      <point x="336" y="462"/>
      <point x="334" y="464"/>
    </contour>
  </outline>
</glyph>
<glyph name="four.numr" format="2">
  <advance width="416"/>
  <outline>
    <contour>
      <point x="283" y="740" type="curve"/>
      <point x="283" y="740" type="line"/>
      <point x="29" y="451" type="line" smooth="yes"/>
      <point x="24" y="445"/>
      <point x="23" y="443"/>
      <point x="22" y="437" type="curve" smooth="yes"/>
      <point x="19" y="418" type="line" smooth="yes"/>
      <point x="18" y="412"/>
      <point x="20" y="411"/>
      <point x="24" y="411" type="curve" smooth="yes"/>
      <point x="238" y="411" type="line" smooth="yes"/>
      <point x="242" y="411"/>
      <point x="243" y="409"/>
      <point x="242" y="406" type="curve"/>
      <point x="225" y="282" type="line"/>
      <point x="224" y="278"/>
      <point x="225" y="276"/>
      <point x="228" y="276" type="curve" smooth="yes"/>
      <point x="247" y="276" type="line" smooth="yes"/>
      <point x="252" y="276"/>
      <point x="253" y="277"/>
      <point x="254" y="281" type="curve"/>
      <point x="271" y="406" type="line"/>
      <point x="271" y="409"/>
      <point x="273" y="411"/>
      <point x="276" y="411" type="curve" smooth="yes"/>
      <point x="341" y="411" type="line" smooth="yes"/>
      <point x="345" y="411"/>
      <point x="347" y="412"/>
      <point x="347" y="416" type="curve"/>
      <point x="350" y="432" type="line"/>
      <point x="350" y="435"/>
      <point x="347" y="437"/>
      <point x="343" y="437" type="curve" smooth="yes"/>
      <point x="279" y="437" type="line" smooth="yes"/>
      <point x="276" y="437"/>
      <point x="276" y="438"/>
      <point x="276" y="441" type="curve"/>
      <point x="318" y="736" type="line"/>
      <point x="318" y="741"/>
      <point x="316" y="743"/>
      <point x="313" y="743" type="curve" smooth="yes"/>
      <point x="291" y="743" type="line" smooth="yes"/>
      <point x="287" y="743"/>
      <point x="285" y="742"/>
    </contour>
    <contour>
      <point x="240" y="437" type="curve" smooth="yes"/>
      <point x="57" y="437" type="line" smooth="yes"/>
      <point x="54" y="437"/>
      <point x="52" y="439"/>
      <point x="57" y="445" type="curve" smooth="yes"/>
      <point x="271" y="687" type="line" smooth="yes"/>
      <point x="277" y="694"/>
      <point x="280" y="694"/>
      <point x="279" y="690" type="curve"/>
      <point x="245" y="442" type="line"/>
      <point x="244" y="438"/>
      <point x="243" y="437"/>
    </contour>
  </outline>
</glyph>
<glyph name="nine.dnom" format="2">
  <advance width="404"/>
  <outline>
    <contour>
      <point x="97" y="-11" type="curve"/>
      <point x="97" y="-11" type="line"/>
      <point x="240" y="-11"/>
      <point x="314" y="139"/>
      <point x="314" y="296" type="curve" smooth="yes"/>
      <point x="314" y="407"/>
      <point x="264" y="468"/>
      <point x="178" y="468" type="curve" smooth="yes"/>
      <point x="86" y="468"/>
      <point x="7" y="398"/>
      <point x="7" y="303" type="curve" smooth="yes"/>
      <point x="7" y="236"/>
      <point x="51" y="187"/>
      <point x="137" y="187" type="curve" smooth="yes"/>
      <point x="192" y="187"/>
      <point x="233" y="206"/>
      <point x="270" y="224" type="curve"/>
      <point x="276" y="226"/>
      <point x="279" y="226"/>
      <point x="277" y="213" type="curve" smooth="yes"/>
      <point x="261" y="102"/>
      <point x="204" y="15"/>
      <point x="98" y="15" type="curve" smooth="yes"/>
      <point x="57" y="15"/>
      <point x="33" y="26"/>
      <point x="15" y="49" type="curve"/>
      <point x="12" y="54"/>
      <point x="9" y="54"/>
      <point x="7" y="52" type="curve"/>
      <point x="-8" y="43" type="line"/>
      <point x="-10" y="42"/>
      <point x="-10" y="40"/>
      <point x="-8" y="37" type="curve" smooth="yes"/>
      <point x="11" y="10"/>
      <point x="44" y="-11"/>
    </contour>
    <contour>
      <point x="136" y="214" type="curve"/>
      <point x="136" y="214" type="line"/>
      <point x="71" y="214"/>
      <point x="36" y="255"/>
      <point x="36" y="307" type="curve" smooth="yes"/>
      <point x="36" y="381"/>
      <point x="100" y="442"/>
      <point x="175" y="442" type="curve" smooth="yes"/>
      <point x="258" y="442"/>
      <point x="288" y="366"/>
      <point x="288" y="307" type="curve" smooth="yes"/>
      <point x="288" y="278"/>
      <point x="285" y="264"/>
      <point x="266" y="252" type="curve" smooth="yes"/>
      <point x="232" y="230"/>
      <point x="177" y="214"/>
    </contour>
  </outline>
</glyph>
<glyph name="one.numr" format="2">
  <advance width="299"/>
  <outline>
    <contour>
      <point x="195" y="302" type="curve"/>
      <point x="195" y="302" type="line"/>
      <point x="117" y="302" type="line" smooth="yes"/>
      <point x="116" y="302"/>
      <point x="114" y="304"/>
      <point x="115" y="306" type="curve"/>
      <point x="176" y="736" type="line"/>
      <point x="177" y="741"/>
      <point x="175" y="743"/>
      <point x="171" y="743" type="curve" smooth="yes"/>
      <point x="154" y="743" type="line" smooth="yes"/>
      <point x="149" y="743"/>
      <point x="146" y="743"/>
      <point x="139" y="740" type="curve" smooth="yes"/>
      <point x="49" y="697" type="line"/>
      <point x="45" y="696"/>
      <point x="44" y="693"/>
      <point x="43" y="689" type="curve"/>
      <point x="41" y="675" type="line"/>
      <point x="41" y="671"/>
      <point x="43" y="670"/>
      <point x="46" y="671" type="curve" smooth="yes"/>
      <point x="138" y="706" type="line" smooth="yes"/>
      <point x="141" y="707"/>
      <point x="143" y="706"/>
      <point x="142" y="703" type="curve"/>
      <point x="86" y="306" type="line"/>
      <point x="85" y="304"/>
      <point x="83" y="302"/>
      <point x="82" y="302" type="curve" smooth="yes"/>
      <point x="-7" y="302" type="line" smooth="yes"/>
      <point x="-10" y="302"/>
      <point x="-10" y="302"/>
      <point x="-11" y="299" type="curve"/>
      <point x="-13" y="280" type="line"/>
      <point x="-14" y="277"/>
      <point x="-13" y="276"/>
      <point x="-10" y="276" type="curve" smooth="yes"/>
      <point x="193" y="276" type="line" smooth="yes"/>
      <point x="195" y="276"/>
      <point x="196" y="277"/>
      <point x="197" y="280" type="curve"/>
      <point x="200" y="298" type="line"/>
      <point x="200" y="301"/>
      <point x="199" y="302"/>
    </contour>
  </outline>
</glyph>
<glyph name="six.dnom" format="2">
  <advance width="404"/>
  <outline>
    <contour>
      <point x="213" y="468" type="curve"/>
      <point x="213" y="468" type="line"/>
      <point x="98" y="468"/>
      <point x="20" y="376"/>
      <point x="-2" y="225" type="curve" smooth="yes"/>
      <point x="-5" y="202"/>
      <point x="-7" y="181"/>
      <point x="-7" y="161" type="curve" smooth="yes"/>
      <point x="-7" y="50"/>
      <point x="44" y="-11"/>
      <point x="132" y="-11" type="curve" smooth="yes"/>
      <point x="227" y="-11"/>
      <point x="304" y="62"/>
      <point x="304" y="155" type="curve" smooth="yes"/>
      <point x="304" y="221"/>
      <point x="260" y="269"/>
      <point x="172" y="269" type="curve" smooth="yes"/>
      <point x="117" y="269"/>
      <point x="75" y="250"/>
      <point x="37" y="233" type="curve" smooth="yes"/>
      <point x="33" y="231"/>
      <point x="29" y="230"/>
      <point x="29" y="234" type="curve" smooth="yes"/>
      <point x="29" y="236"/>
      <point x="29" y="239"/>
      <point x="30" y="243" type="curve"/>
      <point x="46" y="355"/>
      <point x="104" y="442"/>
      <point x="213" y="442" type="curve" smooth="yes"/>
      <point x="250" y="442"/>
      <point x="273" y="429"/>
      <point x="289" y="408" type="curve"/>
      <point x="292" y="403"/>
      <point x="295" y="401"/>
      <point x="297" y="403" type="curve"/>
      <point x="313" y="414" type="line" smooth="yes"/>
      <point x="316" y="416"/>
      <point x="316" y="418"/>
      <point x="314" y="420" type="curve"/>
      <point x="294" y="445"/>
      <point x="263" y="468"/>
    </contour>
    <contour>
      <point x="173" y="243" type="curve"/>
      <point x="173" y="243" type="line"/>
      <point x="240" y="243"/>
      <point x="275" y="202"/>
      <point x="275" y="150" type="curve" smooth="yes"/>
      <point x="275" y="77"/>
      <point x="210" y="15"/>
      <point x="136" y="15" type="curve" smooth="yes"/>
      <point x="52" y="15"/>
      <point x="21" y="92"/>
      <point x="21" y="153" type="curve" smooth="yes"/>
      <point x="21" y="183"/>
      <point x="23" y="197"/>
      <point x="43" y="209" type="curve" smooth="yes"/>
      <point x="76" y="228"/>
      <point x="134" y="243"/>
    </contour>
  </outline>
</glyph>
<glyph name="zero.numr" format="2">
  <advance width="416"/>
  <outline>
    <contour>
      <point x="235" y="752" type="curve"/>
      <point x="235" y="752" type="line"/>
      <point x="145" y="752"/>
      <point x="63" y="674"/>
      <point x="40" y="511" type="curve" smooth="yes"/>
      <point x="37" y="488"/>
      <point x="35" y="466"/>
      <point x="35" y="446" type="curve" smooth="yes"/>
      <point x="35" y="329"/>
      <point x="90" y="273"/>
      <point x="170" y="273" type="curve" smooth="yes"/>
      <point x="261" y="273"/>
      <point x="342" y="349"/>
      <point x="365" y="510" type="curve" smooth="yes"/>
      <point x="368" y="534"/>
      <point x="370" y="555"/>
      <point x="370" y="575" type="curve" smooth="yes"/>
      <point x="370" y="695"/>
      <point x="314" y="752"/>
    </contour>
    <contour>
      <point x="172" y="299" type="curve"/>
      <point x="172" y="299" type="line"/>
      <point x="108" y="299"/>
      <point x="65" y="343"/>
      <point x="65" y="445" type="curve" smooth="yes"/>
      <point x="65" y="465"/>
      <point x="67" y="486"/>
      <point x="70" y="510" type="curve" smooth="yes"/>
      <point x="91" y="660"/>
      <point x="157" y="726"/>
      <point x="234" y="726" type="curve" smooth="yes"/>
      <point x="298" y="726"/>
      <point x="340" y="681"/>
      <point x="340" y="579" type="curve" smooth="yes"/>
      <point x="340" y="560"/>
      <point x="338" y="537"/>
      <point x="335" y="512" type="curve" smooth="yes"/>
      <point x="314" y="363"/>
      <point x="250" y="299"/>
    </contour>
  </outline>
</glyph>
